<svg xmlns="http://www.w3.org/2000/svg" xmlns:xlink="http://www.w3.org/1999/xlink" width="300" height="300" baseProfile="tiny" font-family="Helvetica" font-weight="normal" preserveAspectRatio="xMidYMid meet" text-rendering="geometricPrecision" version="1.2" viewBox="0 0 193.93 330.01" style="width:100%;height:100%"><rect width="193.93" height="330.01" x="0" y="0" fill="#FFF" opacity="0"/><line x1="51" x2="45" y1="162.75" y2="162.75" stroke="#C0C000"/><line x1="45" x2="39" y1="162.75" y2="162.75" stroke="red"/><line x1="51" x2="45" y1="167.25" y2="167.25" stroke="#C0C000"/><line x1="45" x2="39" y1="167.25" y2="167.25" stroke="red"/><line x1="69" x2="75" y1="167.25" y2="167.25" stroke="#C0C000"/><line x1="75" x2="81" y1="167.25" y2="167.25" stroke="red"/><line x1="69" x2="75" y1="162.75" y2="162.75" stroke="#C0C000"/><line x1="75" x2="81" y1="162.75" y2="162.75" stroke="red"/><line x1="60" x2="60" y1="156" y2="150" stroke="#C0C000"/><line x1="60" x2="60" y1="150" y2="144" stroke="#00F"/><line x1="60" x2="60" y1="174" y2="184.5" stroke="#C0C000"/><line x1="60" x2="60" y1="184.5" y2="195" stroke="#000"/><line x1="105.3" x2="96.2" y1="128.55" y2="123.3" stroke="red"/><line x1="96.2" x2="87.11" y1="123.3" y2="118.05" stroke="#000"/><line x1="103.05" x2="93.95" y1="132.45" y2="127.2" stroke="red"/><line x1="93.95" x2="84.86" y1="127.2" y2="121.95" stroke="#000"/><line x1="79.31" x2="70.22" y1="293.56" y2="288.31" stroke="red"/><line x1="70.22" x2="61.13" y1="288.31" y2="283.06" stroke="#000"/><line x1="77.06" x2="67.97" y1="297.46" y2="292.21" stroke="red"/><line x1="67.97" x2="58.88" y1="292.21" y2="286.96" stroke="#000"/><line x1="93.78" x2="102.87" y1="85.5" y2="80.25" stroke="#00F"/><line x1="102.87" x2="111.97" y1="80.25" y2="75" stroke="#000"/><line x1="85.98" x2="85.98" y1="99" y2="109.5" stroke="#00F"/><line x1="85.98" x2="85.98" y1="109.5" y2="120" stroke="#000"/><line x1="67.8" x2="76.89" y1="130.5" y2="125.25" stroke="#00F"/><line x1="76.89" x2="85.98" y1="125.25" y2="120" stroke="#000"/><line x1="111.97" x2="111.97" y1="75" y2="45" stroke="#000"/><line x1="111.97" x2="137.95" y1="75" y2="90" stroke="#000"/><line x1="111.97" x2="137.95" y1="45" y2="30" stroke="#000"/><line x1="137.95" x2="163.93" y1="90" y2="75" stroke="#000"/><line x1="137.95" x2="163.93" y1="30" y2="45" stroke="#000"/><line x1="163.93" x2="163.93" y1="75" y2="45" stroke="#000"/><line x1="60" x2="34.02" y1="195" y2="210" stroke="#000"/><line x1="59.66" x2="38.87" y1="200.4" y2="212.4" stroke="#000"/><line x1="60" x2="85.98" y1="195" y2="210" stroke="#000"/><line x1="34.02" x2="34.02" y1="210" y2="240" stroke="#000"/><line x1="85.98" x2="85.98" y1="210" y2="240" stroke="#000"/><line x1="81.48" x2="81.48" y1="213" y2="237" stroke="#000"/><line x1="60" x2="34.02" y1="255.01" y2="240" stroke="#000"/><line x1="59.66" x2="38.87" y1="249.61" y2="237.61" stroke="#000"/><line x1="60" x2="85.98" y1="255.01" y2="240" stroke="#000"/><line x1="60" x2="60" y1="255.01" y2="285.01" stroke="#000"/><line x1="60" x2="34.02" y1="285.01" y2="300.01" stroke="#000"/><text x="60" y="172" fill="#C0C000" font-size="14" text-anchor="middle">S</text><text x="111.97" y="142" fill="red" font-size="14" text-anchor="middle">O</text><text x="30" y="172" fill="red" font-size="14" text-anchor="middle">O</text><text x="90" y="172" fill="red" font-size="14" text-anchor="middle">O</text><text x="85.98" y="307.01" fill="red" font-size="14" text-anchor="middle">O</text><text x="85.98" y="97" fill="#00F" font-size="14" text-anchor="middle">NH</text><text x="60" y="142" fill="#00F" font-size="14" text-anchor="middle">NH</text></svg>