<svg xmlns="http://www.w3.org/2000/svg" xmlns:xlink="http://www.w3.org/1999/xlink" width="300" height="300" baseProfile="tiny" font-family="Helvetica" font-weight="normal" preserveAspectRatio="xMidYMid meet" text-rendering="geometricPrecision" version="1.2" viewBox="0 0 1190.84 674.97" style="width:100%;height:100%"><rect width="1190.84" height="674.97" x="0" y="0" fill="#FFF" opacity="0"/><line x1="241.7" x2="249.94" y1="641.15" y2="634.64" stroke="#00F"/><line x1="249.94" x2="258.18" y1="634.64" y2="628.13" stroke="#000"/><line x1="238.91" x2="247.15" y1="637.62" y2="631.11" stroke="#00F"/><line x1="247.15" x2="255.39" y1="631.11" y2="624.6" stroke="#000"/><line x1="256.78" x2="266.54" y1="626.36" y2="630.24" stroke="#000"/><line x1="266.54" x2="276.3" y1="630.24" y2="634.12" stroke="#00F"/><line x1="256.78" x2="255.26" y1="626.36" y2="615.97" stroke="#000"/><line x1="255.26" x2="253.74" y1="615.97" y2="605.58" stroke="#00F"/><line x1="244.07" x2="234.31" y1="593.36" y2="589.48" stroke="#00F"/><line x1="234.31" x2="224.55" y1="589.48" y2="585.6" stroke="#000"/><line x1="224.55" x2="220.21" y1="585.6" y2="555.92" stroke="#000"/><line x1="220.21" x2="192.33" y1="555.92" y2="544.84" stroke="#000"/><line x1="192.33" x2="187.98" y1="544.84" y2="515.16" stroke="#000"/><g stroke="#000" stroke-width=".3" transform="matrix(2.79 1.11 -0.17 0.42 168.47 507.40)"><line x1="0" x2="0" y1="8" y2="-8"/><line x1="1" x2="1" y1="7" y2="-7"/><line x1="2" x2="2" y1="6" y2="-6"/><line x1="3" x2="3" y1="5" y2="-5"/><line x1="4" x2="4" y1="4" y2="-4"/><line x1="5" x2="5" y1="3" y2="-3"/><line x1="6" x2="6" y1="2" y2="-2"/><line x1="7" x2="7" y1="1" y2="-1"/></g><line x1="153.04" x2="144.81" y1="509.66" y2="516.17" stroke="#00F"/><line x1="144.81" x2="136.57" y1="516.17" y2="522.69" stroke="#000"/><line x1="134.34" x2="135.86" y1="523.01" y2="533.4" stroke="#000"/><line x1="135.86" x2="137.38" y1="533.4" y2="543.79" stroke="red"/><line x1="138.79" x2="140.32" y1="522.36" y2="532.75" stroke="#000"/><line x1="140.32" x2="141.84" y1="532.75" y2="543.14" stroke="red"/><g stroke="#000" stroke-width=".3" transform="matrix(-3.98 -1.58 0.24 -0.60 136.57 522.69)"><line x1="0" x2="0" y1="8" y2="-8"/><line x1="1" x2="1" y1="7" y2="-7"/><line x1="2" x2="2" y1="6" y2="-6"/><line x1="3" x2="3" y1="5" y2="-5"/><line x1="4" x2="4" y1="4" y2="-4"/><line x1="5" x2="5" y1="3" y2="-3"/><line x1="6" x2="6" y1="2" y2="-2"/><line x1="7" x2="7" y1="1" y2="-1"/></g><line x1="108.69" x2="83.34" y1="511.61" y2="527.65" stroke="#000"/><line x1="83.34" x2="60.25" y1="527.65" y2="508.5" stroke="#000"/><line x1="60.25" x2="71.32" y1="508.5" y2="480.62" stroke="#000"/><line x1="71.32" x2="81.8" y1="480.62" y2="481.29" stroke="#000"/><line x1="81.8" x2="92.28" y1="481.29" y2="481.96" stroke="#00F"/><line x1="108.69" x2="106.09" y1="511.61" y2="501.43" stroke="#000"/><line x1="106.09" x2="103.49" y1="501.43" y2="491.26" stroke="#00F"/><line x1="107.01" x2="113.71" y1="475.61" y2="467.53" stroke="#00F"/><line x1="113.71" x2="120.42" y1="467.53" y2="459.45" stroke="#000"/><line x1="120.04" x2="130.39" y1="461.67" y2="463.43" stroke="#000"/><line x1="130.39" x2="140.74" y1="463.43" y2="465.19" stroke="red"/><line x1="120.79" x2="131.14" y1="457.23" y2="458.99" stroke="#000"/><line x1="131.14" x2="141.5" y1="458.99" y2="460.76" stroke="red"/><line x1="120.42" x2="109.99" y1="459.45" y2="431.31" stroke="#000"/><polygon fill="#000" points="0 1 0 -1 1 0" transform="matrix(-13.40 16.16 -2.42 -2.01 123.40 415.15)"/><line x1="109.99" x2="80.42" y1="431.31" y2="426.28" stroke="#000"/><line x1="80.42" x2="70" y1="426.28" y2="398.14" stroke="#000"/><line x1="70" x2="40.42" y1="398.14" y2="393.11" stroke="#000"/><line x1="67.79" x2="44.13" y1="393.2" y2="389.17" stroke="#000"/><line x1="40.42" x2="30" y1="393.11" y2="364.97" stroke="#000"/><line x1="30" x2="49.15" y1="364.97" y2="341.88" stroke="#000"/><line x1="35.38" x2="50.7" y1="365.54" y2="347.06" stroke="#000"/><line x1="49.15" x2="78.72" y1="341.88" y2="346.92" stroke="#000"/><line x1="78.72" x2="89.15" y1="346.92" y2="375.05" stroke="#000"/><line x1="75.55" x2="83.88" y1="351.3" y2="373.8" stroke="#000"/><line x1="70" x2="89.15" y1="398.14" y2="375.05" stroke="#000"/><line x1="187.98" x2="211.52" y1="515.16" y2="496.55" stroke="#000"/><line x1="213.74" x2="212.22" y1="496.22" y2="485.83" stroke="#000"/><line x1="212.22" x2="210.7" y1="485.83" y2="475.45" stroke="red"/><line x1="209.29" x2="207.77" y1="496.88" y2="486.49" stroke="#000"/><line x1="207.77" x2="206.25" y1="486.49" y2="476.1" stroke="red"/><line x1="211.52" x2="221.28" y1="496.55" y2="500.43" stroke="#000"/><line x1="221.28" x2="231.03" y1="500.43" y2="504.31" stroke="#00F"/><line x1="241.63" x2="244.22" y1="516.35" y2="526.52" stroke="#00F"/><line x1="244.22" x2="246.82" y1="526.52" y2="536.7" stroke="#000"/><line x1="246.82" x2="276.76" y1="536.7" y2="538.62" stroke="#000"/><line x1="276.76" x2="287.84" y1="538.62" y2="510.74" stroke="#000"/><line x1="287.84" x2="264.75" y1="510.74" y2="491.59" stroke="#000"/><line x1="247" x2="255.88" y1="502.82" y2="497.2" stroke="#00F"/><line x1="255.88" x2="264.75" y1="497.2" y2="491.59" stroke="#000"/><g stroke="#000" stroke-width=".3" transform="matrix(-0.27 4.28 -0.64 -0.04 266.67 461.64)"><line x1="0" x2="0" y1="8" y2="-8"/><line x1="1" x2="1" y1="7" y2="-7"/><line x1="2" x2="2" y1="6" y2="-6"/><line x1="3" x2="3" y1="5" y2="-5"/><line x1="4" x2="4" y1="4" y2="-4"/><line x1="5" x2="5" y1="3" y2="-3"/><line x1="6" x2="6" y1="2" y2="-2"/><line x1="7" x2="7" y1="1" y2="-1"/></g><line x1="267.67" x2="277.08" y1="463.66" y2="459" stroke="#000"/><line x1="277.08" x2="286.49" y1="459" y2="454.35" stroke="red"/><line x1="265.67" x2="275.08" y1="459.63" y2="454.97" stroke="#000"/><line x1="275.08" x2="284.49" y1="454.97" y2="450.31" stroke="red"/><line x1="266.67" x2="257.93" y1="461.64" y2="455.82" stroke="#000"/><line x1="257.93" x2="249.19" y1="455.82" y2="450" stroke="#00F"/><line x1="242.28" x2="242.95" y1="436.03" y2="425.55" stroke="#00F"/><line x1="242.95" x2="243.62" y1="425.55" y2="415.07" stroke="#000"/><line x1="243.62" x2="270.51" y1="415.07" y2="401.77" stroke="#000"/><line x1="272.75" x2="273.43" y1="401.91" y2="391.43" stroke="#000"/><line x1="273.43" x2="274.1" y1="391.43" y2="380.95" stroke="red"/><line x1="268.26" x2="268.93" y1="401.62" y2="391.15" stroke="#000"/><line x1="268.93" x2="269.61" y1="391.15" y2="380.67" stroke="red"/><line x1="270.51" x2="279.25" y1="401.77" y2="407.59" stroke="#000"/><line x1="279.25" x2="287.99" y1="407.59" y2="413.41" stroke="#00F"/><line x1="303.54" x2="312.95" y1="414.41" y2="409.75" stroke="#00F"/><line x1="312.95" x2="322.36" y1="409.75" y2="405.09" stroke="#000"/><line x1="322.36" x2="347.33" y1="405.09" y2="421.73" stroke="#000"/><line x1="345.09" x2="344.41" y1="421.58" y2="432.06" stroke="#000"/><line x1="344.41" x2="343.74" y1="432.06" y2="442.54" stroke="red"/><line x1="349.58" x2="348.9" y1="421.87" y2="432.35" stroke="#000"/><line x1="348.9" x2="348.23" y1="432.35" y2="442.83" stroke="red"/><line x1="347.33" x2="356.74" y1="421.73" y2="417.07" stroke="#000"/><line x1="356.74" x2="366.15" y1="417.07" y2="412.41" stroke="#00F"/><line x1="381.71" x2="390.45" y1="413.41" y2="419.23" stroke="#00F"/><line x1="390.45" x2="399.19" y1="419.23" y2="425.06" stroke="#000"/><line x1="399.19" x2="426.07" y1="425.06" y2="411.75" stroke="#000"/><line x1="428.32" x2="428.99" y1="411.89" y2="401.42" stroke="#000"/><line x1="428.99" x2="429.67" y1="401.42" y2="390.94" stroke="red"/><line x1="423.83" x2="424.5" y1="411.61" y2="401.13" stroke="#000"/><line x1="424.5" x2="425.17" y1="401.13" y2="390.65" stroke="red"/><line x1="426.07" x2="434.81" y1="411.75" y2="417.57" stroke="#000"/><line x1="434.81" x2="443.55" y1="417.57" y2="423.39" stroke="#00F"/><line x1="459.11" x2="468.52" y1="424.39" y2="419.73" stroke="#00F"/><line x1="468.52" x2="477.93" y1="419.73" y2="415.07" stroke="#000"/><line x1="477.93" x2="502.9" y1="415.07" y2="431.71" stroke="#000"/><line x1="500.65" x2="499.98" y1="431.56" y2="442.04" stroke="#000"/><line x1="499.98" x2="499.31" y1="442.04" y2="452.52" stroke="red"/><line x1="505.14" x2="504.47" y1="431.85" y2="442.33" stroke="#000"/><line x1="504.47" x2="503.8" y1="442.33" y2="452.81" stroke="red"/><line x1="502.9" x2="512.31" y1="431.71" y2="427.05" stroke="#000"/><line x1="512.31" x2="521.72" y1="427.05" y2="422.39" stroke="#00F"/><g stroke="#000" stroke-width=".3" transform="matrix(2.50 1.66 -0.25 0.37 537.28 423.39)"><line x1="0" x2="0" y1="8" y2="-8"/><line x1="1" x2="1" y1="7" y2="-7"/><line x1="2" x2="2" y1="6" y2="-6"/><line x1="3" x2="3" y1="5" y2="-5"/><line x1="4" x2="4" y1="4" y2="-4"/><line x1="5" x2="5" y1="3" y2="-3"/><line x1="6" x2="6" y1="2" y2="-2"/><line x1="7" x2="7" y1="1" y2="-1"/></g><line x1="554.75" x2="552.83" y1="435.03" y2="464.97" stroke="#000"/><line x1="552.83" x2="577.8" y1="464.97" y2="481.6" stroke="#000"/><line x1="577.8" x2="577.13" y1="481.6" y2="492.08" stroke="#000"/><line x1="577.13" x2="576.45" y1="492.08" y2="502.56" stroke="#00F"/><line x1="578.8" x2="588.21" y1="483.62" y2="478.96" stroke="#000"/><line x1="588.21" x2="597.62" y1="478.96" y2="474.31" stroke="red"/><line x1="576.8" x2="586.21" y1="479.59" y2="474.93" stroke="#000"/><line x1="586.21" x2="595.62" y1="474.93" y2="470.27" stroke="red"/><line x1="554.75" x2="581.64" y1="435.03" y2="421.73" stroke="#000"/><line x1="583.89" x2="584.56" y1="421.87" y2="411.39" stroke="#000"/><line x1="584.56" x2="585.23" y1="411.39" y2="400.91" stroke="red"/><line x1="579.4" x2="580.07" y1="421.58" y2="411.11" stroke="#000"/><line x1="580.07" x2="580.74" y1="411.11" y2="400.63" stroke="red"/><line x1="581.64" x2="590.38" y1="421.73" y2="427.55" stroke="#000"/><line x1="590.38" x2="599.12" y1="427.55" y2="433.37" stroke="#00F"/><line x1="614.68" x2="624.09" y1="434.37" y2="429.71" stroke="#00F"/><line x1="624.09" x2="633.5" y1="429.71" y2="425.06" stroke="#000"/><line x1="633.5" x2="658.46" y1="425.06" y2="441.69" stroke="#000"/><line x1="656.22" x2="655.55" y1="441.54" y2="452.02" stroke="#000"/><line x1="655.55" x2="654.88" y1="452.02" y2="462.5" stroke="red"/><line x1="660.71" x2="660.04" y1="441.83" y2="452.31" stroke="#000"/><line x1="660.04" x2="659.37" y1="452.31" y2="462.79" stroke="red"/><line x1="658.46" x2="667.88" y1="441.69" y2="437.03" stroke="#000"/><line x1="667.88" x2="677.29" y1="437.03" y2="432.37" stroke="#00F"/><g stroke="#000" stroke-width=".3" transform="matrix(2.50 1.66 -0.25 0.37 692.84 433.37)"><line x1="0" x2="0" y1="8" y2="-8"/><line x1="1" x2="1" y1="7" y2="-7"/><line x1="2" x2="2" y1="6" y2="-6"/><line x1="3" x2="3" y1="5" y2="-5"/><line x1="4" x2="4" y1="4" y2="-4"/><line x1="5" x2="5" y1="3" y2="-3"/><line x1="6" x2="6" y1="2" y2="-2"/><line x1="7" x2="7" y1="1" y2="-1"/></g><line x1="710.32" x2="708.4" y1="445.02" y2="474.95" stroke="#000"/><line x1="708.4" x2="733.37" y1="474.95" y2="491.59" stroke="#000"/><line x1="733.37" x2="732.7" y1="491.59" y2="502.07" stroke="#000"/><line x1="732.7" x2="732.02" y1="502.07" y2="512.54" stroke="red"/><line x1="734.37" x2="743.78" y1="493.6" y2="488.94" stroke="#000"/><line x1="743.78" x2="753.19" y1="488.94" y2="484.29" stroke="red"/><line x1="732.37" x2="741.78" y1="489.57" y2="484.91" stroke="#000"/><line x1="741.78" x2="751.19" y1="484.91" y2="480.25" stroke="red"/><line x1="710.32" x2="737.21" y1="445.02" y2="431.71" stroke="#000"/><line x1="739.45" x2="740.12" y1="431.85" y2="421.37" stroke="#000"/><line x1="740.12" x2="740.8" y1="421.37" y2="410.89" stroke="red"/><line x1="734.96" x2="735.63" y1="431.56" y2="421.08" stroke="#000"/><line x1="735.63" x2="736.31" y1="421.08" y2="410.61" stroke="red"/><line x1="737.21" x2="745.95" y1="431.71" y2="437.53" stroke="#000"/><line x1="745.95" x2="754.68" y1="437.53" y2="443.35" stroke="#00F"/><g stroke="#000" stroke-width=".3" transform="matrix(2.69 -1.33 0.20 0.40 770.24 444.35)"><line x1="0" x2="0" y1="8" y2="-8"/><line x1="1" x2="1" y1="7" y2="-7"/><line x1="2" x2="2" y1="6" y2="-6"/><line x1="3" x2="3" y1="5" y2="-5"/><line x1="4" x2="4" y1="4" y2="-4"/><line x1="5" x2="5" y1="3" y2="-3"/><line x1="6" x2="6" y1="2" y2="-2"/><line x1="7" x2="7" y1="1" y2="-1"/></g><line x1="789.06" x2="814.03" y1="435.03" y2="451.67" stroke="#000"/><line x1="814.03" x2="812.11" y1="451.67" y2="481.6" stroke="#000"/><line x1="812.11" x2="837.08" y1="481.6" y2="498.24" stroke="#000"/><line x1="812.11" x2="832.09" y1="487.01" y2="500.32" stroke="#000"/><line x1="837.08" x2="835.16" y1="498.24" y2="528.18" stroke="#000"/><line x1="835.16" x2="808.27" y1="528.18" y2="541.48" stroke="#000"/><line x1="830.47" x2="808.96" y1="525.47" y2="536.12" stroke="#000"/><line x1="808.27" x2="783.3" y1="541.48" y2="524.85" stroke="#000"/><line x1="783.3" x2="785.22" y1="524.85" y2="494.91" stroke="#000"/><line x1="787.99" x2="789.52" y1="522.14" y2="498.19" stroke="#000"/><line x1="812.11" x2="785.22" y1="481.6" y2="494.91" stroke="#000"/><line x1="789.06" x2="790.98" y1="435.03" y2="405.09" stroke="#000"/><line x1="792.23" x2="783.49" y1="403.22" y2="397.4" stroke="#000"/><line x1="783.49" x2="774.75" y1="397.4" y2="391.58" stroke="red"/><line x1="789.74" x2="781" y1="406.97" y2="401.15" stroke="#000"/><line x1="781" x2="772.26" y1="401.15" y2="395.32" stroke="red"/><line x1="790.98" x2="800.39" y1="405.09" y2="400.44" stroke="#000"/><line x1="800.39" x2="809.81" y1="400.44" y2="395.78" stroke="#00F"/><g stroke="#000" stroke-width=".3" transform="matrix(2.50 1.66 -0.25 0.37 825.36 396.78)"><line x1="0" x2="0" y1="8" y2="-8"/><line x1="1" x2="1" y1="7" y2="-7"/><line x1="2" x2="2" y1="6" y2="-6"/><line x1="3" x2="3" y1="5" y2="-5"/><line x1="4" x2="4" y1="4" y2="-4"/><line x1="5" x2="5" y1="3" y2="-3"/><line x1="6" x2="6" y1="2" y2="-2"/><line x1="7" x2="7" y1="1" y2="-1"/></g><line x1="842.84" x2="840.92" y1="408.42" y2="438.36" stroke="#000"/><line x1="840.92" x2="865.89" y1="438.36" y2="454.99" stroke="#000"/><line x1="865.89" x2="863.97" y1="454.99" y2="484.93" stroke="#000"/><line x1="863.97" x2="859.09" y1="484.93" y2="494.23" stroke="#000"/><line x1="859.09" x2="854.21" y1="494.23" y2="503.53" stroke="red"/><line x1="862.72" x2="871.46" y1="486.8" y2="492.63" stroke="#000"/><line x1="871.46" x2="880.19" y1="492.63" y2="498.45" stroke="red"/><line x1="865.21" x2="873.95" y1="483.06" y2="488.88" stroke="#000"/><line x1="873.95" x2="882.69" y1="488.88" y2="494.7" stroke="red"/><line x1="842.84" x2="869.73" y1="408.42" y2="395.12" stroke="#000"/><line x1="871.97" x2="872.65" y1="395.26" y2="384.78" stroke="#000"/><line x1="872.65" x2="873.32" y1="384.78" y2="374.3" stroke="red"/><line x1="867.48" x2="868.16" y1="394.97" y2="384.49" stroke="#000"/><line x1="868.16" x2="868.83" y1="384.49" y2="374.02" stroke="red"/><line x1="869.73" x2="878.47" y1="395.12" y2="400.94" stroke="#000"/><line x1="878.47" x2="887.21" y1="400.94" y2="406.76" stroke="#00F"/><polygon fill="#000" points="0 1 0 -1 1 0" transform="matrix(18.82 -9.31 1.40 2.82 902.76 407.76)"/><line x1="921.58" x2="923.5" y1="398.44" y2="368.5" stroke="#000"/><line x1="923.5" x2="950.39" y1="368.5" y2="355.2" stroke="#000"/><line x1="950.39" x2="952.31" y1="355.2" y2="325.26" stroke="#000"/><line x1="952.31" x2="943.57" y1="325.26" y2="319.44" stroke="#000"/><line x1="943.57" x2="934.83" y1="319.44" y2="313.61" stroke="red"/><line x1="953.31" x2="962.72" y1="327.27" y2="322.62" stroke="#000"/><line x1="962.72" x2="972.13" y1="322.62" y2="317.96" stroke="red"/><line x1="951.31" x2="960.72" y1="323.24" y2="318.58" stroke="#000"/><line x1="960.72" x2="970.13" y1="318.58" y2="313.93" stroke="red"/><line x1="921.58" x2="946.55" y1="398.44" y2="415.07" stroke="#000"/><line x1="944.31" x2="943.63" y1="414.93" y2="425.41" stroke="#000"/><line x1="943.63" x2="942.96" y1="425.41" y2="435.89" stroke="red"/><line x1="948.8" x2="948.12" y1="415.22" y2="425.7" stroke="#000"/><line x1="948.12" x2="947.45" y1="425.7" y2="436.18" stroke="red"/><line x1="946.55" x2="955.96" y1="415.07" y2="410.42" stroke="#000"/><line x1="955.96" x2="965.37" y1="410.42" y2="405.76" stroke="#00F"/><g stroke="#000" stroke-width=".3" transform="matrix(2.50 1.66 -0.25 0.37 980.93 406.76)"><line x1="0" x2="0" y1="8" y2="-8"/><line x1="1" x2="1" y1="7" y2="-7"/><line x1="2" x2="2" y1="6" y2="-6"/><line x1="3" x2="3" y1="5" y2="-5"/><line x1="4" x2="4" y1="4" y2="-4"/><line x1="5" x2="5" y1="3" y2="-3"/><line x1="6" x2="6" y1="2" y2="-2"/><line x1="7" x2="7" y1="1" y2="-1"/></g><line x1="998.41" x2="996.49" y1="418.4" y2="448.34" stroke="#000"/><polygon fill="#000" points="0 1 0 -1 1 0" transform="matrix(-24.97 -16.63 2.49 -3.75 1021.45 464.97)"/><line x1="996.49" x2="969.6" y1="448.34" y2="461.64" stroke="#000"/><line x1="969.6" x2="967.68" y1="461.64" y2="491.59" stroke="#000"/><line x1="998.41" x2="1025.29" y1="418.4" y2="405.09" stroke="#000"/><line x1="1027.54" x2="1028.21" y1="405.24" y2="394.76" stroke="#000"/><line x1="1028.21" x2="1028.88" y1="394.76" y2="384.28" stroke="red"/><line x1="1023.05" x2="1023.72" y1="404.95" y2="394.47" stroke="#000"/><line x1="1023.72" x2="1024.39" y1="394.47" y2="383.99" stroke="red"/><line x1="1025.29" x2="1034.03" y1="405.09" y2="410.92" stroke="#000"/><line x1="1034.03" x2="1042.77" y1="410.92" y2="416.74" stroke="#00F"/><line x1="1050.63" x2="1051.05" y1="430.72" y2="441.21" stroke="#00F"/><line x1="1051.05" x2="1051.48" y1="441.21" y2="451.7" stroke="#000"/><line x1="1051.48" x2="1080.37" y1="451.7" y2="459.81" stroke="#000"/><line x1="1080.37" x2="1097" y1="459.81" y2="434.84" stroke="#000"/><line x1="1097" x2="1078.39" y1="434.84" y2="411.31" stroke="#000"/><line x1="1058.7" x2="1068.55" y1="418.6" y2="414.95" stroke="#00F"/><line x1="1068.55" x2="1078.39" y1="414.95" y2="411.31" stroke="#000"/><g stroke="#000" stroke-width=".3" transform="matrix(-1.16 4.13 -0.62 -0.17 1086.49 382.42)"><line x1="0" x2="0" y1="8" y2="-8"/><line x1="1" x2="1" y1="7" y2="-7"/><line x1="2" x2="2" y1="6" y2="-6"/><line x1="3" x2="3" y1="5" y2="-5"/><line x1="4" x2="4" y1="4" y2="-4"/><line x1="5" x2="5" y1="3" y2="-3"/><line x1="6" x2="6" y1="2" y2="-2"/><line x1="7" x2="7" y1="1" y2="-1"/></g><line x1="1087.05" x2="1097.23" y1="384.6" y2="382" stroke="#000"/><line x1="1097.23" x2="1107.4" y1="382" y2="379.4" stroke="red"/><line x1="1085.94" x2="1096.11" y1="380.24" y2="377.64" stroke="#000"/><line x1="1096.11" x2="1106.29" y1="377.64" y2="375.04" stroke="red"/><line x1="1086.49" x2="1079.16" y1="382.42" y2="374.91" stroke="#000"/><line x1="1079.16" x2="1071.82" y1="374.91" y2="367.4" stroke="#00F"/><g stroke="#000" stroke-width=".3" transform="matrix(0.81 -2.89 0.43 0.12 1067.96 352.29)"><line x1="0" x2="0" y1="8" y2="-8"/><line x1="1" x2="1" y1="7" y2="-7"/><line x1="2" x2="2" y1="6" y2="-6"/><line x1="3" x2="3" y1="5" y2="-5"/><line x1="4" x2="4" y1="4" y2="-4"/><line x1="5" x2="5" y1="3" y2="-3"/><line x1="6" x2="6" y1="2" y2="-2"/><line x1="7" x2="7" y1="1" y2="-1"/></g><line x1="1073.64" x2="1102.7" y1="332.08" y2="324.65" stroke="#000"/><line x1="1102.7" x2="1110.8" y1="324.65" y2="295.76" stroke="#000"/><line x1="1110.8" x2="1139.87" y1="295.76" y2="288.34" stroke="#000"/><line x1="1139.87" x2="1142.71" y1="288.34" y2="278.23" stroke="#000"/><line x1="1142.71" x2="1145.54" y1="278.23" y2="268.12" stroke="red"/><line x1="1138.26" x2="1145.6" y1="289.91" y2="297.42" stroke="#000"/><line x1="1145.6" x2="1152.94" y1="297.42" y2="304.93" stroke="red"/><line x1="1141.48" x2="1148.82" y1="286.77" y2="294.28" stroke="#000"/><line x1="1148.82" x2="1156.16" y1="294.28" y2="301.79" stroke="red"/><line x1="1073.64" x2="1052.67" y1="332.08" y2="310.61" stroke="#000"/><line x1="1052.12" x2="1041.94" y1="308.43" y2="311.03" stroke="#000"/><line x1="1041.94" x2="1031.77" y1="311.03" y2="313.63" stroke="red"/><line x1="1053.23" x2="1043.06" y1="312.79" y2="315.39" stroke="#000"/><line x1="1043.06" x2="1032.88" y1="315.39" y2="317.99" stroke="red"/><line x1="1052.67" x2="1055.51" y1="310.61" y2="300.5" stroke="#000"/><line x1="1055.51" x2="1058.34" y1="300.5" y2="290.4" stroke="#00F"/><polygon fill="#000" points="0 1 0 -1 1 0" transform="matrix(-14.67 -15.02 2.25 -2.20 1054.49 275.29)"/><line x1="1039.81" x2="1010.74" y1="260.27" y2="267.69" stroke="#000"/><line x1="1010.74" x2="989.78" y1="267.69" y2="246.23" stroke="#000"/><line x1="989.78" x2="960.72" y1="246.23" y2="253.66" stroke="#000"/><line x1="960.72" x2="957.88" y1="253.66" y2="263.77" stroke="#000"/><line x1="957.88" x2="955.04" y1="263.77" y2="273.88" stroke="red"/><line x1="962.32" x2="954.99" y1="252.08" y2="244.57" stroke="#000"/><line x1="954.99" x2="947.65" y1="244.57" y2="237.06" stroke="red"/><line x1="959.11" x2="951.77" y1="255.23" y2="247.72" stroke="#000"/><line x1="951.77" x2="944.43" y1="247.72" y2="240.21" stroke="red"/><line x1="1039.81" x2="1047.92" y1="260.27" y2="231.38" stroke="#000"/><line x1="1048.47" x2="1058.65" y1="233.56" y2="230.96" stroke="#000"/><line x1="1058.65" x2="1068.82" y1="230.96" y2="228.37" stroke="red"/><line x1="1047.36" x2="1057.53" y1="229.2" y2="226.61" stroke="#000"/><line x1="1057.53" x2="1067.71" y1="226.61" y2="224.01" stroke="red"/><line x1="1047.92" x2="1040.58" y1="231.38" y2="223.87" stroke="#000"/><line x1="1040.58" x2="1033.24" y1="223.87" y2="216.36" stroke="#00F"/><g stroke="#000" stroke-width=".3" transform="matrix(0.81 -2.89 0.43 0.12 1029.38 201.26)"><line x1="0" x2="0" y1="8" y2="-8"/><line x1="1" x2="1" y1="7" y2="-7"/><line x1="2" x2="2" y1="6" y2="-6"/><line x1="3" x2="3" y1="5" y2="-5"/><line x1="4" x2="4" y1="4" y2="-4"/><line x1="5" x2="5" y1="3" y2="-3"/><line x1="6" x2="6" y1="2" y2="-2"/><line x1="7" x2="7" y1="1" y2="-1"/></g><line x1="1035.05" x2="1064.12" y1="181.04" y2="173.61" stroke="#000"/><line x1="1064.12" x2="1072.23" y1="173.61" y2="144.73" stroke="#000"/><line x1="1072.23" x2="1051.26" y1="144.73" y2="123.27" stroke="#000"/><line x1="1073.35" x2="1056.58" y1="139.44" y2="122.27" stroke="#000"/><line x1="1051.26" x2="1059.36" y1="123.27" y2="94.38" stroke="#000"/><line x1="1059.36" x2="1088.43" y1="94.38" y2="86.96" stroke="#000"/><line x1="1063.38" x2="1086.64" y1="98" y2="92.06" stroke="#000"/><line x1="1088.43" x2="1091.27" y1="86.96" y2="76.85" stroke="#000"/><line x1="1091.27" x2="1094.1" y1="76.85" y2="66.74" stroke="red"/><line x1="1088.43" x2="1109.39" y1="86.96" y2="108.42" stroke="#000"/><line x1="1109.39" x2="1101.29" y1="108.42" y2="137.3" stroke="#000"/><line x1="1104.25" x2="1097.77" y1="110.09" y2="133.2" stroke="#000"/><line x1="1072.23" x2="1101.29" y1="144.73" y2="137.3" stroke="#000"/><line x1="1035.05" x2="1014.09" y1="181.04" y2="159.58" stroke="#000"/><line x1="1013.53" x2="1003.36" y1="157.4" y2="160" stroke="#000"/><line x1="1003.36" x2="993.19" y1="160" y2="162.59" stroke="red"/><line x1="1014.65" x2="1004.47" y1="161.76" y2="164.36" stroke="#000"/><line x1="1004.47" x2="994.3" y1="164.36" y2="166.95" stroke="red"/><line x1="1014.09" x2="1016.93" y1="159.58" y2="149.47" stroke="#000"/><line x1="1016.93" x2="1019.76" y1="149.47" y2="139.36" stroke="#00F"/><g stroke="#000" stroke-width=".3" transform="matrix(-2.10 -2.15 0.32 -0.31 1015.90 124.25)"><line x1="0" x2="0" y1="8" y2="-8"/><line x1="1" x2="1" y1="7" y2="-7"/><line x1="2" x2="2" y1="6" y2="-6"/><line x1="3" x2="3" y1="5" y2="-5"/><line x1="4" x2="4" y1="4" y2="-4"/><line x1="5" x2="5" y1="3" y2="-3"/><line x1="6" x2="6" y1="2" y2="-2"/><line x1="7" x2="7" y1="1" y2="-1"/></g><line x1="1001.23" x2="1009.33" y1="109.23" y2="80.35" stroke="#000"/><line x1="1009.33" x2="988.37" y1="80.35" y2="58.89" stroke="#000"/><line x1="988.37" x2="959.3" y1="58.89" y2="66.31" stroke="#000"/><line x1="988.37" x2="996.47" y1="58.89" y2="30" stroke="#000"/><line x1="1001.23" x2="972.16" y1="109.23" y2="116.66" stroke="#000"/><line x1="972.16" x2="964.83" y1="116.66" y2="109.15" stroke="#000"/><line x1="964.83" x2="957.49" y1="109.15" y2="101.64" stroke="red"/><line x1="970" x2="967.16" y1="116.05" y2="126.16" stroke="#000"/><line x1="967.16" x2="964.32" y1="126.16" y2="136.27" stroke="red"/><line x1="974.33" x2="971.49" y1="117.27" y2="127.38" stroke="#000"/><line x1="971.49" x2="968.66" y1="127.38" y2="137.49" stroke="red"/><text x="240.25" y="651.97" fill="#00F" font-size="14" text-anchor="end">HN</text><text x="277.66" y="644.44" fill="#00F" font-size="14">NH<tspan baseline-shift="-25%" font-size="10">2</tspan></text><text x="252.44" y="603.68" fill="#00F" font-size="14" text-anchor="middle">NH</text><text x="160.1" y="511.08" fill="#00F" font-size="14" text-anchor="middle">NH</text><text x="140.91" y="559.37" fill="red" font-size="14" text-anchor="middle">O</text><text x="101.26" y="489.54" fill="#00F" font-size="14" text-anchor="middle">N</text><text x="149.99" y="471.48" fill="red" font-size="14" text-anchor="middle">O</text><text x="122.14" y="415.22" fill="#00F" font-size="14">NH<tspan baseline-shift="-25%" font-size="10">2</tspan></text><text x="207.17" y="473.87" fill="red" font-size="14" text-anchor="middle">O</text><text x="239.4" y="514.63" fill="#00F" font-size="14" text-anchor="middle">N</text><text x="293.56" y="455.34" fill="red" font-size="14" text-anchor="middle">O</text><text x="248.7" y="452.02" fill="#00F" font-size="14" text-anchor="end">HN</text><text x="272.43" y="378.83" fill="red" font-size="14" text-anchor="middle">O</text><text x="295.48" y="425.4" fill="#00F" font-size="14" text-anchor="middle">NH</text><text x="345.41" y="458.67" fill="red" font-size="14" text-anchor="middle">O</text><text x="374.22" y="415.42" fill="#00F" font-size="14" text-anchor="middle">NH</text><text x="428" y="388.81" fill="red" font-size="14" text-anchor="middle">O</text><text x="451.04" y="435.38" fill="#00F" font-size="14" text-anchor="middle">NH</text><text x="500.98" y="468.64" fill="red" font-size="14" text-anchor="middle">O</text><text x="529.79" y="425.4" fill="#00F" font-size="14" text-anchor="middle">NH</text><text x="582.88" y="518.54" fill="#00F" font-size="14" text-anchor="end">H<tspan baseline-shift="-25%" font-size="10">2</tspan>N</text><text x="604.69" y="475.3" fill="red" font-size="14" text-anchor="middle">O</text><text x="583.56" y="398.79" fill="red" font-size="14" text-anchor="middle">O</text><text x="606.61" y="445.36" fill="#00F" font-size="14" text-anchor="middle">NH</text><text x="656.54" y="478.63" fill="red" font-size="14" text-anchor="middle">O</text><text x="685.35" y="435.38" fill="#00F" font-size="14" text-anchor="middle">NH</text><text x="738.45" y="528.53" fill="red" font-size="14" text-anchor="end">HO</text><text x="760.25" y="485.28" fill="red" font-size="14" text-anchor="middle">O</text><text x="739.13" y="408.77" fill="red" font-size="14" text-anchor="middle">O</text><text x="762.17" y="455.34" fill="#00F" font-size="14" text-anchor="middle">NH</text><text x="766.01" y="395.46" fill="red" font-size="14" text-anchor="middle">O</text><text x="817.87" y="398.79" fill="#00F" font-size="14" text-anchor="middle">NH</text><text x="857.03" y="518.5" fill="red" font-size="14" text-anchor="end">HO</text><text x="888.93" y="508.56" fill="red" font-size="14" text-anchor="middle">O</text><text x="871.65" y="372.18" fill="red" font-size="14" text-anchor="middle">O</text><text x="894.7" y="418.75" fill="#00F" font-size="14" text-anchor="middle">NH</text><text x="934.34" y="315.62" fill="red" font-size="14" text-anchor="end">HO</text><text x="979.2" y="318.95" fill="red" font-size="14" text-anchor="middle">O</text><text x="944.63" y="452.02" fill="red" font-size="14" text-anchor="middle">O</text><text x="973.44" y="408.77" fill="#00F" font-size="14" text-anchor="middle">NH</text><text x="1027.21" y="382.16" fill="red" font-size="14" text-anchor="middle">O</text><text x="1050.26" y="428.73" fill="#00F" font-size="14" text-anchor="middle">N</text><text x="1115.56" y="382" fill="red" font-size="14" text-anchor="middle">O</text><text x="1072.53" y="367.96" fill="#00F" font-size="14" text-anchor="end">HN</text><text x="1140.98" y="266.45" fill="red" font-size="14">OH</text><text x="1160.84" y="316.8" fill="red" font-size="14" text-anchor="middle">O</text><text x="1023.6" y="325.04" fill="red" font-size="14" text-anchor="middle">O</text><text x="1053.77" y="288.73" fill="#00F" font-size="14">NH</text><text x="959.61" y="289.54" fill="red" font-size="14" text-anchor="end">HO</text><text x="939.75" y="239.2" fill="red" font-size="14" text-anchor="middle">O</text><text x="1076.98" y="230.96" fill="red" font-size="14" text-anchor="middle">O</text><text x="1033.95" y="216.92" fill="#00F" font-size="14" text-anchor="end">HN</text><text x="1089.53" y="65.07" fill="red" font-size="14">OH</text><text x="985.02" y="174" fill="red" font-size="14" text-anchor="middle">O</text><text x="1015.19" y="137.69" fill="#00F" font-size="14">NH</text><text x="958.2" y="102.2" fill="red" font-size="14" text-anchor="end">HO</text><text x="964.06" y="152.54" fill="red" font-size="14" text-anchor="middle">O</text></svg>