<svg xmlns="http://www.w3.org/2000/svg" xmlns:xlink="http://www.w3.org/1999/xlink" width="300" height="300" baseProfile="tiny" font-family="Helvetica" font-weight="normal" preserveAspectRatio="xMidYMid meet" text-rendering="geometricPrecision" version="1.2" viewBox="0 0 446.16 240" style="width:100%;height:100%"><rect width="446.16" height="240" x="0" y="0" fill="#FFF" opacity="0"/><line x1="258.27" x2="249.18" y1="109.5" y2="114.75" stroke="#C0C000"/><line x1="249.18" x2="240.09" y1="114.75" y2="120" stroke="#000"/><line x1="240.09" x2="240.09" y1="120" y2="130.5" stroke="#000"/><line x1="240.09" x2="240.09" y1="130.5" y2="141" stroke="#00F"/><line x1="247.88" x2="256.98" y1="154.5" y2="159.75" stroke="#00F"/><line x1="256.98" x2="266.07" y1="159.75" y2="165" stroke="#000"/><line x1="266.07" x2="292.05" y1="165" y2="150" stroke="#000"/><line x1="266.42" x2="287.2" y1="159.6" y2="147.6" stroke="#000"/><line x1="292.05" x2="292.05" y1="150" y2="120" stroke="#000"/><line x1="273.86" x2="282.96" y1="109.5" y2="114.75" stroke="#C0C000"/><line x1="282.96" x2="292.05" y1="114.75" y2="120" stroke="#000"/><line x1="240.09" x2="210.09" y1="120" y2="120" stroke="#000"/><line x1="210.09" x2="210.09" y1="120" y2="150" stroke="#000"/><line x1="210.09" x2="220.59" y1="150" y2="150" stroke="#000"/><line x1="220.59" x2="231.09" y1="150" y2="150" stroke="#00F"/><line x1="266.07" x2="266.07" y1="165" y2="195" stroke="#000"/><line x1="264.94" x2="255.85" y1="193.05" y2="198.3" stroke="#000"/><line x1="255.85" x2="246.76" y1="198.3" y2="203.55" stroke="red"/><line x1="267.19" x2="258.1" y1="196.95" y2="202.2" stroke="#000"/><line x1="258.1" x2="249.01" y1="202.2" y2="207.45" stroke="red"/><line x1="266.07" x2="275.16" y1="195" y2="200.25" stroke="#000"/><line x1="275.16" x2="284.26" y1="200.25" y2="205.5" stroke="red"/><polygon fill="#000" points="0 1 0 -1 1 0" transform="matrix(18.18 10.50 -1.57 2.73 191.90 109.50)"/><g stroke="#000" stroke-width=".3" transform="matrix(0.00 3.00 -0.45 0.00 240.09 99.00)"><line x1="0" x2="0" y1="8" y2="-8"/><line x1="1" x2="1" y1="7" y2="-7"/><line x1="2" x2="2" y1="6" y2="-6"/><line x1="3" x2="3" y1="5" y2="-5"/><line x1="4" x2="4" y1="4" y2="-4"/><line x1="5" x2="5" y1="3" y2="-3"/><line x1="6" x2="6" y1="2" y2="-2"/><line x1="7" x2="7" y1="1" y2="-1"/></g><line x1="176.31" x2="167.22" y1="109.5" y2="114.75" stroke="#00F"/><line x1="167.22" x2="158.13" y1="114.75" y2="120" stroke="#000"/><line x1="158.13" x2="132.15" y1="120" y2="105" stroke="#000"/><line x1="132.15" x2="106.17" y1="105" y2="120" stroke="#000"/><line x1="155.88" x2="155.88" y1="120" y2="130.5" stroke="#000"/><line x1="155.88" x2="155.88" y1="130.5" y2="141" stroke="red"/><line x1="160.38" x2="160.38" y1="120" y2="130.5" stroke="#000"/><line x1="160.38" x2="160.38" y1="130.5" y2="141" stroke="red"/><line x1="132.15" x2="132.15" y1="105" y2="94.5" stroke="#000"/><line x1="132.15" x2="132.15" y1="94.5" y2="84" stroke="#00F"/><line x1="127.65" x2="127.65" y1="102.9" y2="94.5" stroke="#000"/><line x1="127.65" x2="127.65" y1="94.5" y2="86.1" stroke="#00F"/><line x1="139.94" x2="145.14" y1="70.5" y2="67.5" stroke="#00F"/><line x1="145.14" x2="150.33" y1="67.5" y2="64.5" stroke="red"/><line x1="158.13" x2="158.13" y1="51" y2="40.5" stroke="red"/><line x1="158.13" x2="158.13" y1="40.5" y2="30" stroke="#000"/><line x1="72.34" x2="66.17" y1="118.01" y2="126.5" stroke="#00F"/><line x1="66.17" x2="60" y1="126.5" y2="135" stroke="#000"/><line x1="74.75" x2="69.81" y1="122.35" y2="129.15" stroke="#00F"/><line x1="69.81" x2="64.88" y1="129.15" y2="135.95" stroke="#000"/><line x1="60" x2="66.17" y1="135" y2="143.49" stroke="#000"/><line x1="66.17" x2="72.34" y1="143.49" y2="151.99" stroke="#C0C000"/><line x1="86.19" x2="96.18" y1="156.49" y2="153.24" stroke="#C0C000"/><line x1="96.18" x2="106.17" y1="153.24" y2="150" stroke="#000"/><line x1="106.17" x2="106.17" y1="150" y2="120" stroke="#000"/><line x1="101.67" x2="101.67" y1="147" y2="123" stroke="#000"/><line x1="86.19" x2="96.18" y1="113.51" y2="116.75" stroke="#00F"/><line x1="96.18" x2="106.17" y1="116.75" y2="120" stroke="#000"/><line x1="60" x2="49.5" y1="135" y2="135" stroke="#000"/><line x1="49.5" x2="39" y1="135" y2="135" stroke="#00F"/><line x1="208.5" x2="201.07" y1="148.41" y2="155.83" stroke="#000"/><line x1="201.07" x2="193.65" y1="155.83" y2="163.26" stroke="red"/><line x1="211.68" x2="204.25" y1="151.59" y2="159.02" stroke="#000"/><line x1="204.25" x2="196.83" y1="159.02" y2="166.44" stroke="red"/><line x1="292.05" x2="318.03" y1="150" y2="165" stroke="#000"/><line x1="318.03" x2="327.13" y1="165" y2="159.75" stroke="#000"/><line x1="327.13" x2="336.22" y1="159.75" y2="154.5" stroke="#C0C000"/><line x1="351.81" x2="360.9" y1="154.5" y2="159.75" stroke="#C0C000"/><line x1="360.9" x2="369.99" y1="159.75" y2="165" stroke="#000"/><line x1="389.97" x2="379.98" y1="158.51" y2="161.76" stroke="#00F"/><line x1="379.98" x2="369.99" y1="161.76" y2="165" stroke="#000"/><line x1="369.99" x2="369.99" y1="165" y2="175.5" stroke="#000"/><line x1="369.99" x2="369.99" y1="175.5" y2="186" stroke="#00F"/><line x1="374.49" x2="374.49" y1="167.1" y2="175.5" stroke="#000"/><line x1="374.49" x2="374.49" y1="175.5" y2="183.9" stroke="#00F"/><line x1="378.55" x2="389.97" y1="197.78" y2="201.49" stroke="#00F"/><line x1="403.82" x2="410.87" y1="196.99" y2="187.28" stroke="#00F"/><line x1="400.88" x2="406.52" y1="193.37" y2="185.61" stroke="#00F"/><line x1="403.82" x2="410.87" y1="163.01" y2="172.72" stroke="#00F"/><line x1="400.86" x2="403.57" y1="147.04" y2="136.9" stroke="#00F"/><line x1="403.57" x2="406.29" y1="136.9" y2="126.75" stroke="#000"/><text x="266.07" y="112" fill="#C0C000" font-size="14" text-anchor="middle">S</text><text x="240.09" y="157" fill="#00F" font-size="14" text-anchor="middle">N</text><text x="240.09" y="217" fill="red" font-size="14" text-anchor="middle">O</text><text x="285.05" y="217" fill="red" font-size="14">OH</text><text x="184.11" y="112" fill="#00F" font-size="14" text-anchor="middle">NH</text><text x="240.09" y="97" fill="#000" font-size="14" text-anchor="middle">H</text><text x="158.13" y="157" fill="red" font-size="14" text-anchor="middle">O</text><text x="132.15" y="82" fill="#00F" font-size="14" text-anchor="middle">N</text><text x="158.13" y="67" fill="red" font-size="14" text-anchor="middle">O</text><text x="77.63" y="117.73" fill="#00F" font-size="14" text-anchor="middle">N</text><text x="77.63" y="166.27" fill="#C0C000" font-size="14" text-anchor="middle">S</text><text x="37" y="142" fill="#00F" font-size="14" text-anchor="end">H<tspan baseline-shift="-25%" font-size="10">2</tspan>N</text><text x="188.88" y="178.21" fill="red" font-size="14" text-anchor="middle">O</text><text x="344.01" y="157" fill="#C0C000" font-size="14" text-anchor="middle">S</text><text x="398.53" y="162.73" fill="#00F" font-size="14" text-anchor="middle">N</text><text x="369.99" y="202" fill="#00F" font-size="14" text-anchor="middle">N</text><text x="398.53" y="211.27" fill="#00F" font-size="14" text-anchor="middle">N</text><text x="416.16" y="187" fill="#00F" font-size="14" text-anchor="middle">N</text></svg>