<svg xmlns="http://www.w3.org/2000/svg" xmlns:xlink="http://www.w3.org/1999/xlink" width="200" height="200" baseProfile="tiny" font-family="Helvetica" font-weight="normal" preserveAspectRatio="xMidYMid meet" text-rendering="geometricPrecision" version="1.2" viewBox="0 0 366.81 285.47"><rect width="366.81" height="285.47" x="0" y="0" fill="#FFF" opacity="0"/><line x1="189.03" x2="192.17" y1="93.48" y2="63.64" stroke="#000"/><line x1="193.82" x2="196.33" y1="90.97" y2="67.1" stroke="#000"/><line x1="192.17" x2="221.52" y1="63.64" y2="57.41" stroke="#000"/><line x1="221.52" x2="236.52" y1="57.41" y2="83.39" stroke="#000"/><line x1="192.17" x2="184.37" y1="63.64" y2="56.62" stroke="#000"/><line x1="184.37" x2="176.57" y1="56.62" y2="49.59" stroke="#00C000"/><g stroke-width=".3" transform="matrix(2.98 0.31 -0.05 0.45 236.52 83.39)"><line x1="0" x2="0" y1="1" y2="-1" stroke="#000"/><line x1="1" x2="1" y1="2" y2="-2" stroke="#000"/><line x1="2" x2="2" y1="3" y2="-3" stroke="#000"/><line x1="3" x2="3" y1="4" y2="-4" stroke="#000"/><line x1="4" x2="4" y1="5" y2="-5" stroke="#0F0"/><line x1="5" x2="5" y1="6" y2="-6" stroke="#0F0"/><line x1="6" x2="6" y1="7" y2="-7" stroke="#0F0"/><line x1="7" x2="7" y1="8" y2="-8" stroke="#0F0"/></g><line x1="189.03" x2="179.94" y1="93.48" y2="98.73" stroke="#000"/><line x1="179.94" x2="170.85" y1="98.73" y2="103.98" stroke="#00F"/><line x1="155.26" x2="150.07" y1="103.98" y2="100.98" stroke="#00F"/><line x1="150.07" x2="144.87" y1="100.98" y2="97.98" stroke="#C000C0"/><line x1="139.44" x2="139.52" y1="84.99" y2="79.3" stroke="#C000C0"/><line x1="139.52" x2="139.6" y1="79.3" y2="73.62" stroke="red"/><line x1="134.94" x2="135.02" y1="84.92" y2="79.24" stroke="#C000C0"/><line x1="135.02" x2="135.1" y1="79.24" y2="73.56" stroke="red"/><line x1="134.64" x2="133.01" y1="98.96" y2="102.62" stroke="#C000C0"/><line x1="133.01" x2="131.39" y1="102.62" y2="106.28" stroke="red"/><line x1="129.65" x2="124.7" y1="97.38" y2="99.98" stroke="#C000C0"/><line x1="124.7" x2="119.76" y1="99.98" y2="102.58" stroke="#C0C000"/><line x1="128.95" x2="128.95" y1="119.18" y2="127.84" stroke="red"/><line x1="128.95" x2="128.94" y1="127.84" y2="136.5" stroke="#000"/><line x1="105.28" x2="97.05" y1="102.33" y2="97.5" stroke="#C0C000"/><line x1="97.05" x2="88.83" y1="97.5" y2="92.67" stroke="#000"/><line x1="285.98" x2="308.28" y1="182.91" y2="162.84" stroke="#000"/><line x1="285.2" x2="303.04" y1="177.56" y2="161.5" stroke="#000"/><line x1="308.28" x2="302.04" y1="162.84" y2="133.49" stroke="#000"/><g stroke-width=".3" transform="matrix(8.54 -19.19 2.88 1.28 221.52 57.41)"><polygon fill="#000" points="0 0 .5 -.5 .5 .5"/><polygon fill="green" points=".5 -.5 .5 .5 1 1 1 -1"/></g><line x1="222.68" x2="251.21" y1="135.02" y2="144.29" stroke="#000"/><line x1="302.04" x2="309.85" y1="133.49" y2="126.47" stroke="#000"/><line x1="309.85" x2="317.65" y1="126.47" y2="119.44" stroke="#40C040"/><line x1="302.04" x2="292.05" y1="133.49" y2="130.25" stroke="#000"/><line x1="292.05" x2="282.07" y1="130.25" y2="127" stroke="#00F"/><line x1="298.65" x2="290.66" y1="137.12" y2="134.53" stroke="#000"/><line x1="290.66" x2="282.67" y1="134.53" y2="131.93" stroke="#00F"/><line x1="266.82" x2="259.02" y1="130.24" y2="137.27" stroke="#00F"/><line x1="259.02" x2="251.21" y1="137.27" y2="144.29" stroke="#000"/><line x1="257.45" x2="285.98" y1="173.64" y2="182.91" stroke="#000"/><line x1="251.21" x2="257.45" y1="144.29" y2="173.64" stroke="#000"/><line x1="256.24" x2="261.23" y1="146.29" y2="169.77" stroke="#000"/><line x1="257.45" x2="235.15" y1="173.64" y2="193.71" stroke="#000"/><line x1="235.85" x2="205.93" y1="191.57" y2="186.58" stroke="#000"/><line x1="234.46" x2="207.32" y1="195.85" y2="182.3" stroke="#000"/><line x1="285.98" x2="292.22" y1="182.91" y2="212.25" stroke="#000"/><line x1="292.22" x2="296.71" y1="212.25" y2="241.26" stroke="#000"/><line x1="287.77" x2="292.26" y1="212.94" y2="241.94" stroke="#000"/><line x1="296.67" x2="301.16" y1="211.57" y2="240.57" stroke="#000"/><line x1="206.62" x2="184.33" y1="184.44" y2="204.51" stroke="#000"/><line x1="189.03" x2="216.44" y1="93.48" y2="105.68" stroke="#000"/><polyline fill="none" stroke="#000" stroke-width=".2" points="0 0 .5 0 1 1 2 -1 3 1 4 -1 5 1 6 -1 6.5 0 7 0" transform="matrix(0.89 4.19 -4.40 0.94 216.44 105.68)"/><line x1="236.52" x2="216.44" y1="83.39" y2="105.68" stroke="#000"/><line x1="308.28" x2="318.26" y1="162.84" y2="166.08" stroke="#000"/><line x1="318.26" x2="328.25" y1="166.08" y2="169.33" stroke="#00F"/><line x1="184.33" x2="155.8" y1="204.51" y2="195.24" stroke="#000"/><line x1="182.86" x2="160.04" y1="199.31" y2="191.89" stroke="#000"/><line x1="155.8" x2="133.5" y1="195.24" y2="215.32" stroke="#000"/><line x1="133.5" x2="104.97" y1="215.32" y2="206.05" stroke="#000"/><line x1="132.04" x2="109.21" y1="210.11" y2="202.69" stroke="#000"/><line x1="104.97" x2="82.67" y1="206.05" y2="226.12" stroke="#000"/><line x1="80.47" x2="82.66" y1="226.59" y2="236.86" stroke="#000"/><line x1="82.66" x2="84.84" y1="236.86" y2="247.13" stroke="red"/><line x1="84.87" x2="87.06" y1="225.65" y2="235.92" stroke="#000"/><line x1="87.06" x2="89.24" y1="235.92" y2="246.19" stroke="red"/><line x1="82.67" x2="72.69" y1="226.12" y2="222.88" stroke="#000"/><line x1="72.69" x2="62.7" y1="222.88" y2="219.63" stroke="red"/><line x1="206.62" x2="204.44" y1="184.44" y2="174.17" stroke="#000"/><line x1="204.44" x2="202.26" y1="174.17" y2="163.9" stroke="red"/><text x="169.88" y="50.57" fill="#00C000" font-size="14" text-anchor="middle">Br</text><text x="233.72" y="37" fill="green" font-size="14" text-anchor="middle">I</text><text x="266.35" y="93.52" fill="#0F0" font-size="14" text-anchor="middle">F</text><text x="163.06" y="115.48" fill="#00F" font-size="14" text-anchor="middle">NH</text><text x="137.08" y="100.48" fill="#C000C0" font-size="14" text-anchor="middle">P</text><text x="112.33" y="113.47" fill="#C0C000" font-size="14" text-anchor="middle">S</text><text x="137.46" y="72.06" fill="red" font-size="14" text-anchor="middle">O</text><text x="128.95" y="118.76" fill="red" font-size="14" text-anchor="middle">O</text><text x="273.51" y="131.22" fill="#00F" font-size="14" text-anchor="middle">N</text><text x="30" y="177.87" fill="#00C0C0" font-size="14" text-anchor="middle">Na<tspan baseline-shift="50%" font-size="10">+</tspan></text><text x="324.34" y="120.42" fill="#40C040" font-size="14" text-anchor="middle">Cl</text><text x="329.81" y="179.11" fill="#00F" font-size="14">NH<tspan baseline-shift="-25%" font-size="10">2</tspan></text><text x="54.14" y="223.85" fill="red" font-size="14" text-anchor="middle">O<tspan baseline-shift="50%" font-size="10">–</tspan></text><text x="88.91" y="262.47" fill="red" font-size="14" text-anchor="middle">O</text><text x="207.39" y="162.09" fill="red" font-size="14" text-anchor="end">HO</text></svg>