<svg xmlns="http://www.w3.org/2000/svg" xmlns:xlink="http://www.w3.org/1999/xlink" width="300" height="300" baseProfile="tiny" font-family="Helvetica" font-weight="normal" preserveAspectRatio="xMidYMid meet" text-rendering="geometricPrecision" version="1.2" viewBox="0 0 394.36 336.63" style="width:100%;height:100%"><rect width="394.36" height="336.63" x="0" y="0" fill="#FFF" opacity="0"/><line x1="103.78" x2="97.03" y1="286.21" y2="277.49" stroke="red"/><line x1="97.03" x2="90.29" y1="277.49" y2="268.76" stroke="#000"/><line x1="117.01" x2="125.71" y1="287.88" y2="281.1" stroke="red"/><line x1="125.71" x2="134.41" y1="281.1" y2="274.32" stroke="#000"/><polygon fill="#000" points="0 1 0 -1 1 0" transform="matrix(-20.54 -4.39 0.66 -3.08 135.47 253.94)"/><line x1="147.04" x2="150.28" y1="264.38" y2="274.37" stroke="red"/><line x1="150.28" x2="153.51" y1="274.37" y2="284.36" stroke="#000"/><polygon fill="#000" points="0 1 0 -1 1 0" transform="matrix(-14.85 -14.85 2.23 -2.23 152.94 222.01)"/><line x1="167.46" x2="176.98" y1="232.17" y2="236.61" stroke="red"/><line x1="176.98" x2="186.49" y1="236.61" y2="241.05" stroke="#000"/><g stroke="#000" stroke-width=".3" transform="matrix(-2.38 -1.83 0.27 -0.36 166.23 192.22)"><line x1="0" x2="0" y1="8" y2="-8"/><line x1="1" x2="1" y1="7" y2="-7"/><line x1="2" x2="2" y1="6" y2="-6"/><line x1="3" x2="3" y1="5" y2="-5"/><line x1="4" x2="4" y1="4" y2="-4"/><line x1="5" x2="5" y1="3" y2="-3"/><line x1="6" x2="6" y1="2" y2="-2"/><line x1="7" x2="7" y1="1" y2="-1"/></g><g stroke="#000" stroke-width=".3" transform="matrix(2.76 1.18 -0.18 0.41 38.27 217.53)"><line x1="0" x2="0" y1="8" y2="-8"/><line x1="1" x2="1" y1="7" y2="-7"/><line x1="2" x2="2" y1="6" y2="-6"/><line x1="3" x2="3" y1="5" y2="-5"/><line x1="4" x2="4" y1="4" y2="-4"/><line x1="5" x2="5" y1="3" y2="-3"/><line x1="6" x2="6" y1="2" y2="-2"/><line x1="7" x2="7" y1="1" y2="-1"/></g><line x1="50.18" x2="60.68" y1="181.69" y2="181.69" stroke="red"/><line x1="60.68" x2="71.18" y1="181.69" y2="181.69" stroke="#000"/><line x1="50.18" x2="60.68" y1="177.19" y2="177.19" stroke="red"/><line x1="60.68" x2="71.18" y1="177.19" y2="177.19" stroke="#000"/><g stroke="#000" stroke-width=".3" transform="matrix(2.12 2.12 -0.32 0.32 67.81 136.88)"><line x1="0" x2="0" y1="8" y2="-8"/><line x1="1" x2="1" y1="7" y2="-7"/><line x1="2" x2="2" y1="6" y2="-6"/><line x1="3" x2="3" y1="5" y2="-5"/><line x1="4" x2="4" y1="4" y2="-4"/><line x1="5" x2="5" y1="3" y2="-3"/><line x1="6" x2="6" y1="2" y2="-2"/><line x1="7" x2="7" y1="1" y2="-1"/></g><polygon fill="#000" points="0 1 0 -1 1 0" transform="matrix(-14.85 14.85 -2.23 -2.23 176.37 113.45)"/><line x1="191.43" x2="201.57" y1="109.41" y2="112.13" stroke="red"/><line x1="201.57" x2="211.71" y1="112.13" y2="114.85" stroke="#000"/><line x1="174.52" x2="164.25" y1="286.54" y2="284.35" stroke="red"/><line x1="164.25" x2="153.98" y1="284.35" y2="282.16" stroke="#000"/><line x1="173.58" x2="163.31" y1="290.94" y2="288.75" stroke="red"/><line x1="163.31" x2="153.04" y1="288.75" y2="286.56" stroke="#000"/><line x1="202.4" x2="193.8" y1="227.16" y2="233.18" stroke="red"/><line x1="193.8" x2="185.2" y1="233.18" y2="239.21" stroke="#000"/><line x1="204.98" x2="196.38" y1="230.85" y2="236.87" stroke="red"/><line x1="196.38" x2="187.78" y1="236.87" y2="242.89" stroke="#000"/><line x1="219.32" x2="216.6" y1="134.55" y2="124.41" stroke="red"/><line x1="216.6" x2="213.88" y1="124.41" y2="114.27" stroke="#000"/><line x1="214.97" x2="212.25" y1="135.71" y2="125.57" stroke="red"/><line x1="212.25" x2="209.54" y1="125.57" y2="115.43" stroke="#000"/><g stroke="#000" stroke-width=".3" transform="matrix(0.78 2.90 -0.43 0.12 227.49 73.35)"><line x1="0" x2="0" y1="8" y2="-8"/><line x1="1" x2="1" y1="7" y2="-7"/><line x1="2" x2="2" y1="6" y2="-6"/><line x1="3" x2="3" y1="5" y2="-5"/><line x1="4" x2="4" y1="4" y2="-4"/><line x1="5" x2="5" y1="3" y2="-3"/><line x1="6" x2="6" y1="2" y2="-2"/><line x1="7" x2="7" y1="1" y2="-1"/></g><line x1="304.08" x2="301.36" y1="158.43" y2="148.28" stroke="red"/><line x1="301.36" x2="298.64" y1="148.28" y2="138.14" stroke="#000"/><line x1="315.1" x2="325.24" y1="169.45" y2="172.16" stroke="red"/><line x1="325.24" x2="335.38" y1="172.16" y2="174.88" stroke="#000"/><line x1="311.9" x2="304.47" y1="121.7" y2="129.13" stroke="red"/><line x1="304.47" x2="297.05" y1="129.13" y2="136.55" stroke="#000"/><line x1="315.08" x2="307.66" y1="124.89" y2="132.31" stroke="red"/><line x1="307.66" x2="300.23" y1="132.31" y2="139.73" stroke="#000"/><g stroke="#000" stroke-width=".3" transform="matrix(-0.78 -2.90 0.43 -0.12 267.33 121.68)"><line x1="0" x2="0" y1="8" y2="-8"/><line x1="1" x2="1" y1="7" y2="-7"/><line x1="2" x2="2" y1="6" y2="-6"/><line x1="3" x2="3" y1="5" y2="-5"/><line x1="4" x2="4" y1="4" y2="-4"/><line x1="5" x2="5" y1="3" y2="-3"/><line x1="6" x2="6" y1="2" y2="-2"/><line x1="7" x2="7" y1="1" y2="-1"/></g><line x1="278.36" x2="288.5" y1="132.71" y2="135.42" stroke="#00F"/><line x1="288.5" x2="298.64" y1="135.42" y2="138.14" stroke="#000"/><line x1="110.38" x2="114.93" y1="218.64" y2="249.55" stroke="#000"/><line x1="110.38" x2="82.66" y1="218.64" y2="207.16" stroke="#000"/><line x1="110.38" x2="138.09" y1="218.64" y2="207.16" stroke="#000"/><polygon fill="#000" points="0 1 0 -1 1 0" transform="matrix(-15.52 -6.43 0.96 -2.33 125.90 225.07)"/><line x1="114.93" x2="90.29" y1="249.55" y2="268.76" stroke="#000"/><line x1="114.93" x2="134.41" y1="249.55" y2="274.32" stroke="#000"/><line x1="82.66" x2="57.58" y1="207.16" y2="225.8" stroke="#000"/><line x1="82.66" x2="71.18" y1="207.16" y2="179.44" stroke="#000"/><g stroke="#000" stroke-width=".3" transform="matrix(3.96 1.64 -0.25 0.59 54.94 195.68)"><line x1="0" x2="0" y1="8" y2="-8"/><line x1="1" x2="1" y1="7" y2="-7"/><line x1="2" x2="2" y1="6" y2="-6"/><line x1="3" x2="3" y1="5" y2="-5"/><line x1="4" x2="4" y1="4" y2="-4"/><line x1="5" x2="5" y1="3" y2="-3"/><line x1="6" x2="6" y1="2" y2="-2"/><line x1="7" x2="7" y1="1" y2="-1"/></g><line x1="90.29" x2="61.42" y1="268.76" y2="256.81" stroke="#000"/><polygon fill="#000" points="0 1 0 -1 1 0" transform="matrix(10.20 -13.35 2.00 1.53 80.09 282.11)"/><line x1="138.09" x2="149.57" y1="207.16" y2="179.44" stroke="#000"/><line x1="149.57" x2="138.09" y1="179.44" y2="151.73" stroke="#000"/><line x1="149.57" x2="169.77" y1="179.44" y2="157.19" stroke="#000"/><line x1="57.58" x2="61.42" y1="225.8" y2="256.81" stroke="#000"/><line x1="138.09" x2="110.38" y1="151.73" y2="140.24" stroke="#000"/><line x1="138.09" x2="171.41" y1="151.73" y2="142.8" stroke="#000"/><line x1="138.09" x2="147.02" y1="151.73" y2="118.4" stroke="#000"/><line x1="71.18" x2="82.66" y1="179.44" y2="151.73" stroke="#000"/><line x1="169.77" x2="161.52" y1="157.19" y2="128.29" stroke="#000"/><line x1="110.38" x2="82.66" y1="140.24" y2="151.73" stroke="#000"/><line x1="110.38" x2="132.63" y1="140.24" y2="120.05" stroke="#000"/><line x1="115.62" x2="133.42" y1="141.56" y2="125.4" stroke="#000"/><line x1="161.52" x2="132.63" y1="128.29" y2="120.05" stroke="#000"/><line x1="132.63" x2="125.8" y1="120.05" y2="90.84" stroke="#000"/><line x1="153.51" x2="133.41" y1="284.36" y2="306.63" stroke="#000"/><line x1="186.49" x2="211.06" y1="241.05" y2="258.25" stroke="#000"/><line x1="211.71" x2="232.92" y1="114.85" y2="93.63" stroke="#000"/><line x1="211.06" x2="238.25" y1="258.25" y2="245.57" stroke="#000"/><line x1="215.68" x2="237.43" y1="261.06" y2="250.92" stroke="#000"/><line x1="211.06" x2="208.45" y1="258.25" y2="288.14" stroke="#000"/><line x1="232.92" x2="261.9" y1="93.63" y2="101.4" stroke="#000"/><line x1="238.25" x2="262.83" y1="245.57" y2="262.78" stroke="#000"/><line x1="208.45" x2="233.03" y1="288.14" y2="305.35" stroke="#000"/><line x1="213.49" x2="233.15" y1="286.17" y2="299.94" stroke="#000"/><line x1="261.9" x2="283.11" y1="101.4" y2="80.19" stroke="#000"/><line x1="262.83" x2="260.21" y1="262.78" y2="292.67" stroke="#000"/><line x1="258.08" x2="255.99" y1="265.38" y2="289.29" stroke="#000"/><line x1="233.03" x2="260.21" y1="305.35" y2="292.67" stroke="#000"/><line x1="283.11" x2="275.35" y1="80.19" y2="51.21" stroke="#000"/><line x1="286.68" x2="280.47" y1="76.12" y2="52.94" stroke="#000"/><line x1="283.11" x2="312.09" y1="80.19" y2="87.95" stroke="#000"/><line x1="275.35" x2="296.56" y1="51.21" y2="30" stroke="#000"/><line x1="312.09" x2="333.3" y1="87.95" y2="66.74" stroke="#000"/><line x1="311.03" x2="328" y1="82.65" y2="65.68" stroke="#000"/><line x1="296.56" x2="325.54" y1="30" y2="37.76" stroke="#000"/><line x1="298.29" x2="321.48" y1="35.12" y2="41.33" stroke="#000"/><line x1="333.3" x2="325.54" y1="66.74" y2="37.76" stroke="#000"/><line x1="335.38" x2="343.15" y1="174.88" y2="145.9" stroke="#000"/><line x1="335.38" x2="327.61" y1="174.88" y2="203.86" stroke="#000"/><line x1="335.38" x2="364.36" y1="174.88" y2="182.65" stroke="#000"/><text x="109.56" y="300.69" fill="red" font-size="14" text-anchor="middle">O</text><text x="144.27" y="262.82" fill="red" font-size="14" text-anchor="middle">O</text><text x="159.3" y="235.37" fill="red" font-size="14" text-anchor="middle">O</text><text x="166.37" y="204.7" fill="red" font-size="14">OH</text><text x="37" y="220.99" fill="red" font-size="14" text-anchor="end">HO</text><text x="41.18" y="186.44" fill="red" font-size="14" text-anchor="middle">O</text><text x="68.45" y="137.51" fill="red" font-size="14" text-anchor="end">HO</text><text x="182.73" y="114.08" fill="red" font-size="14" text-anchor="middle">O</text><text x="182.85" y="297.62" fill="red" font-size="14" text-anchor="middle">O</text><text x="211.07" y="230.84" fill="red" font-size="14" text-anchor="middle">O</text><text x="219.48" y="150.82" fill="red" font-size="14" text-anchor="middle">O</text><text x="232.16" y="71.66" fill="red" font-size="14" text-anchor="end">HO</text><text x="306.4" y="174.12" fill="red" font-size="14" text-anchor="middle">O</text><text x="319.85" y="123.93" fill="red" font-size="14" text-anchor="middle">O</text><text x="269.66" y="137.38" fill="#00F" font-size="14" text-anchor="middle">NH</text><text x="132.55" y="234.82" fill="#000" font-size="14" text-anchor="middle">H</text><text x="75.71" y="294.83" fill="#000" font-size="14" text-anchor="middle">H</text></svg>