<svg xmlns="http://www.w3.org/2000/svg" xmlns:xlink="http://www.w3.org/1999/xlink" width="300" height="300" baseProfile="tiny" font-family="Helvetica" font-weight="normal" preserveAspectRatio="xMidYMid meet" text-rendering="geometricPrecision" version="1.2" viewBox="0 0 240.39 205.79" style="width:100%;height:100%"><rect width="240.39" height="205.79" x="0" y="0" fill="#FFF" opacity="0"/><line x1="30" x2="59.14" y1="157.97" y2="143.98" stroke="#000"/><line x1="59.14" x2="90.94" y1="143.98" y2="157.05" stroke="#000"/><line x1="58.79" x2="58.97" y1="120.28" y2="132.13" stroke="#00C0C0"/><line x1="58.97" x2="59.14" y1="132.13" y2="143.98" stroke="#000"/><line x1="50.05" x2="40.02" y1="124.48" y2="141.22" stroke="#00C0C0"/><line x1="40.02" x2="30" y1="141.22" y2="157.97" stroke="#000"/><line x1="30" x2="46.07" y1="157.97" y2="175.79" stroke="#000"/><line x1="73.16" x2="90.94" y1="175.38" y2="157.05" stroke="#000"/><line x1="90.94" x2="79.64" y1="157.05" y2="140.63" stroke="#000"/><line x1="79.64" x2="68.33" y1="140.63" y2="124.21" stroke="#00C0C0"/><line x1="46.07" x2="50.47" y1="175.79" y2="152.81" stroke="#000"/><line x1="50.47" x2="54.87" y1="152.81" y2="129.83" stroke="#00C0C0"/><line x1="62.99" x2="68.07" y1="129.7" y2="152.54" stroke="#00C0C0"/><line x1="68.07" x2="73.16" y1="152.54" y2="175.38" stroke="#000"/><line x1="58.46" x2="58.26" y1="98.62" y2="85.19" stroke="#00C0C0"/><line x1="58.26" x2="58.06" y1="85.19" y2="71.76" stroke="#000"/><line x1="67.87" x2="78.65" y1="93.73" y2="74.61" stroke="#00C0C0"/><line x1="78.65" x2="89.42" y1="74.61" y2="55.48" stroke="#000"/><line x1="62.37" x2="66.73" y1="88.4" y2="63.05" stroke="#00C0C0"/><line x1="66.73" x2="71.09" y1="63.05" y2="37.69" stroke="#000"/><line x1="44.01" x2="49.13" y1="38.1" y2="63.31" stroke="#000"/><line x1="49.13" x2="54.25" y1="63.31" y2="88.52" stroke="#00C0C0"/><line x1="30.7" x2="40.48" y1="54.1" y2="73.71" stroke="#000"/><line x1="40.48" x2="50.26" y1="73.71" y2="93.32" stroke="#00C0C0"/><line x1="46.07" x2="73.16" y1="175.79" y2="175.38" stroke="#000"/><line x1="58.06" x2="30.7" y1="71.76" y2="54.1" stroke="#000"/><line x1="89.42" x2="58.06" y1="55.48" y2="71.76" stroke="#000"/><line x1="89.42" x2="71.09" y1="55.48" y2="37.69" stroke="#000"/><line x1="71.09" x2="44.01" y1="37.69" y2="38.1" stroke="#000"/><line x1="44.01" x2="30.7" y1="38.1" y2="54.1" stroke="#000"/><line x1="173.69" x2="176.77" y1="39.26" y2="49.3" stroke="red"/><line x1="176.77" x2="179.86" y1="49.3" y2="59.34" stroke="#000"/><line x1="177.99" x2="181.08" y1="37.94" y2="47.98" stroke="red"/><line x1="181.08" x2="184.16" y1="47.98" y2="58.02" stroke="#000"/><line x1="182.01" x2="210.39" y1="58.68" y2="68.4" stroke="#000"/><line x1="182.01" x2="175.7" y1="58.68" y2="67.07" stroke="#000"/><line x1="175.7" x2="169.4" y1="67.07" y2="75.46" stroke="#00F"/><line x1="210.39" x2="209.9" y1="68.4" y2="98.39" stroke="#000"/><line x1="205.84" x2="205.45" y1="71.33" y2="95.32" stroke="#000"/><line x1="209.9" x2="181.23" y1="98.39" y2="107.2" stroke="#000"/><line x1="179.1" x2="175.7" y1="106.47" y2="116.41" stroke="#000"/><line x1="175.7" x2="172.29" y1="116.41" y2="126.34" stroke="red"/><line x1="183.36" x2="179.95" y1="107.93" y2="117.87" stroke="#000"/><line x1="179.95" x2="176.55" y1="117.87" y2="127.8" stroke="red"/><line x1="181.23" x2="175.2" y1="107.2" y2="98.61" stroke="#000"/><line x1="175.2" x2="169.16" y1="98.61" y2="90.02" stroke="#00F"/><line x1="154.99" x2="144.5" y1="82.51" y2="82.35" stroke="#00F"/><line x1="144.5" x2="134" y1="82.35" y2="82.18" stroke="#000"/><line x1="134" x2="119.42" y1="82.18" y2="55.96" stroke="#000"/><line x1="119.42" x2="89.42" y1="55.96" y2="55.48" stroke="#000"/><text x="58.64" y="117.13" fill="#00C0C0" font-size="14" text-anchor="middle">Fe</text><text x="173.2" y="37" fill="red" font-size="14" text-anchor="middle">O</text><text x="171.5" y="142.58" fill="red" font-size="14" text-anchor="middle">O</text><text x="163.99" y="89.66" fill="#00F" font-size="14" text-anchor="middle">N</text></svg>