<svg xmlns="http://www.w3.org/2000/svg" xmlns:xlink="http://www.w3.org/1999/xlink" width="300" height="300" baseProfile="tiny" font-family="Helvetica" font-weight="normal" preserveAspectRatio="xMidYMid meet" text-rendering="geometricPrecision" version="1.2" viewBox="0 0 321.83 301.03" style="width:100%;height:100%"><rect width="321.83" height="301.03" x="0" y="0" fill="#FFF" opacity="0"/><line x1="61.77" x2="70.85" y1="266.18" y2="260.9" stroke="#40C040"/><line x1="70.85" x2="79.92" y1="260.9" y2="255.61" stroke="#000"/><line x1="258.02" x2="248.95" y1="213.8" y2="219.08" stroke="red"/><line x1="248.95" x2="239.87" y1="219.08" y2="224.37" stroke="#000"/><line x1="273.6" x2="282.72" y1="213.74" y2="218.95" stroke="red"/><line x1="282.72" x2="291.83" y1="218.95" y2="224.16" stroke="#000"/><line x1="89.75" x2="98.84" y1="79.5" y2="84.75" stroke="#00F"/><line x1="98.84" x2="107.94" y1="84.75" y2="90" stroke="#000"/><line x1="81.96" x2="81.96" y1="66" y2="55.5" stroke="#00F"/><line x1="81.96" x2="81.96" y1="55.5" y2="45" stroke="#000"/><line x1="74.17" x2="65.07" y1="79.5" y2="84.75" stroke="#00F"/><line x1="65.07" x2="55.98" y1="84.75" y2="90" stroke="#000"/><line x1="152.1" x2="143.01" y1="175.49" y2="170.24" stroke="#00F"/><line x1="143.01" x2="133.92" y1="170.24" y2="164.99" stroke="#000"/><line x1="159.89" x2="159.89" y1="188.99" y2="199.49" stroke="#00F"/><line x1="159.89" x2="159.89" y1="199.49" y2="209.99" stroke="#000"/><line x1="167.69" x2="176.78" y1="265.49" y2="260.24" stroke="#00F"/><line x1="176.78" x2="185.88" y1="260.24" y2="254.99" stroke="#000"/><line x1="167.26" x2="174.53" y1="260.54" y2="256.34" stroke="#00F"/><line x1="174.53" x2="181.81" y1="256.34" y2="252.14" stroke="#000"/><line x1="152.1" x2="143.01" y1="265.49" y2="260.24" stroke="#00F"/><line x1="143.01" x2="133.92" y1="260.24" y2="254.99" stroke="#000"/><line x1="133.92" x2="133.92" y1="164.99" y2="135" stroke="#000"/><line x1="133.92" x2="107.94" y1="164.99" y2="179.99" stroke="#000"/><line x1="133.92" x2="107.94" y1="135" y2="120" stroke="#000"/><line x1="107.94" x2="107.94" y1="120" y2="90" stroke="#000"/><line x1="159.89" x2="185.88" y1="209.99" y2="224.99" stroke="#000"/><line x1="160.24" x2="181.03" y1="215.39" y2="227.39" stroke="#000"/><line x1="159.89" x2="133.92" y1="209.99" y2="224.99" stroke="#000"/><line x1="81.96" x2="55.98" y1="45" y2="30" stroke="#000"/><line x1="55.98" x2="30" y1="90" y2="75" stroke="#000"/><line x1="185.88" x2="185.88" y1="224.99" y2="254.99" stroke="#000"/><line x1="185.88" x2="212.69" y1="224.99" y2="208.95" stroke="#000"/><line x1="133.92" x2="133.92" y1="224.99" y2="254.99" stroke="#000"/><line x1="129.42" x2="129.42" y1="227.99" y2="251.99" stroke="#000"/><line x1="133.92" x2="107.1" y1="224.99" y2="208.95" stroke="#000"/><line x1="185.88" x2="212.69" y1="254.99" y2="271.03" stroke="#000"/><line x1="133.92" x2="107.1" y1="254.99" y2="271.03" stroke="#000"/><line x1="212.69" x2="239.87" y1="208.95" y2="224.37" stroke="#000"/><line x1="213.19" x2="234.94" y1="214.41" y2="226.74" stroke="#000"/><line x1="107.1" x2="79.92" y1="208.95" y2="224.37" stroke="#000"/><line x1="106.6" x2="84.86" y1="214.41" y2="226.74" stroke="#000"/><line x1="212.69" x2="239.87" y1="271.03" y2="255.61" stroke="#000"/><line x1="213.19" x2="234.94" y1="265.57" y2="253.24" stroke="#000"/><line x1="107.1" x2="79.92" y1="271.03" y2="255.61" stroke="#000"/><line x1="106.6" x2="84.86" y1="265.57" y2="253.24" stroke="#000"/><line x1="239.87" x2="239.87" y1="224.37" y2="255.61" stroke="#000"/><line x1="79.92" x2="79.92" y1="224.37" y2="255.61" stroke="#000"/><text x="54" y="277.71" fill="#40C040" font-size="14" text-anchor="middle">Cl</text><text x="265.79" y="216.27" fill="red" font-size="14" text-anchor="middle">O</text><text x="81.96" y="82" fill="#00F" font-size="14" text-anchor="middle">N</text><text x="159.89" y="186.99" fill="#00F" font-size="14" text-anchor="middle">NH</text><text x="159.89" y="276.99" fill="#00F" font-size="14" text-anchor="middle">N</text></svg>